<mxfile host="65bd71144e">
    <diagram id="qP8tViLoVXonkRvD1TmW" name="Page-1">
        <mxGraphModel dx="783" dy="487" grid="1" gridSize="10" guides="1" tooltips="1" connect="1" arrows="1" fold="1" page="1" pageScale="1" pageWidth="850" pageHeight="1100" math="0" shadow="0">
            <root>
                <mxCell id="0"/>
                <mxCell id="1" parent="0"/>
                <mxCell id="2" value="JuegoRio" style="swimlane;fontStyle=1;align=center;verticalAlign=top;childLayout=stackLayout;horizontal=1;startSize=26;horizontalStack=0;resizeParent=1;resizeParentMax=0;resizeLast=0;collapsible=1;marginBottom=0;" vertex="1" parent="1">
                    <mxGeometry x="80" y="60" width="300" height="270" as="geometry"/>
                </mxCell>
                <mxCell id="3" value="- rioIzq: ArrayList&lt;String&gt;&#10;- rioDer: ArrayList&lt;String&gt;&#10;- scanner: ArrayList&lt;String&gt;" style="text;strokeColor=none;fillColor=none;align=left;verticalAlign=top;spacingLeft=4;spacingRight=4;overflow=hidden;rotatable=0;points=[[0,0.5],[1,0.5]];portConstraint=eastwest;" vertex="1" parent="2">
                    <mxGeometry y="26" width="300" height="54" as="geometry"/>
                </mxCell>
                <mxCell id="4" value="" style="line;strokeWidth=1;fillColor=none;align=left;verticalAlign=middle;spacingTop=-1;spacingLeft=3;spacingRight=3;rotatable=0;labelPosition=right;points=[];portConstraint=eastwest;strokeColor=inherit;" vertex="1" parent="2">
                    <mxGeometry y="80" width="300" height="8" as="geometry"/>
                </mxCell>
                <mxCell id="5" value="+ realizarJugada(): void&#10;+ mover(String): void&#10;+ desplegarSeungoMenu(): boolean&#10;+ cruzarRioHaciaIzquierda(String): void&#10;+ cruzarRioHaciaDerecha(String): void&#10;+ verificarEstado(ArrayList&lt;String&gt;, String): boolean&#10;+ verificarJugada(ArrayList&lt;String&gt;): boolean&#10;+barcoMovimiento(int, char): void&#10;+ pausa(): void" style="text;strokeColor=none;fillColor=none;align=left;verticalAlign=top;spacingLeft=4;spacingRight=4;overflow=hidden;rotatable=0;points=[[0,0.5],[1,0.5]];portConstraint=eastwest;" vertex="1" parent="2">
                    <mxGeometry y="88" width="300" height="182" as="geometry"/>
                </mxCell>
                <mxCell id="7" value="ControladorJuego" style="swimlane;fontStyle=1;align=center;verticalAlign=top;childLayout=stackLayout;horizontal=1;startSize=26;horizontalStack=0;resizeParent=1;resizeParentMax=0;resizeLast=0;collapsible=1;marginBottom=0;" vertex="1" parent="1">
                    <mxGeometry x="500" y="70" width="420" height="130" as="geometry"/>
                </mxCell>
                <mxCell id="9" value="" style="line;strokeWidth=1;fillColor=none;align=left;verticalAlign=middle;spacingTop=-1;spacingLeft=3;spacingRight=3;rotatable=0;labelPosition=right;points=[];portConstraint=eastwest;strokeColor=inherit;" vertex="1" parent="7">
                    <mxGeometry y="26" width="420" height="8" as="geometry"/>
                </mxCell>
                <mxCell id="10" value="+ puedeMoverse(String, ArayList&lt;String&gt;, ArayList&lt;String&gt;, String): boolean&#10;+ juegoTerminado(ArrayList&lt;String&gt;): boolean&#10;+ mostrarEstadoJuego(String, String): void&#10;+ moverPersonaje(String, ArrayList&lt;String&gt;, String): void&#10;" style="text;strokeColor=none;fillColor=none;align=left;verticalAlign=top;spacingLeft=4;spacingRight=4;overflow=hidden;rotatable=0;points=[[0,0.5],[1,0.5]];portConstraint=eastwest;" vertex="1" parent="7">
                    <mxGeometry y="34" width="420" height="96" as="geometry"/>
                </mxCell>
                <mxCell id="12" style="html=1;entryX=0;entryY=0.5;entryDx=0;entryDy=0;endArrow=classic;endFill=1;startArrow=diamond;startFill=0;" edge="1" parent="1" source="5" target="10">
                    <mxGeometry relative="1" as="geometry"/>
                </mxCell>
            </root>
        </mxGraphModel>
    </diagram>
</mxfile>